<svg xmlns="http://www.w3.org/2000/svg" viewBox="0 0 123.11 50.18"><defs><style>.cls-1{opacity:0.82;}.cls-2,.cls-3{fill:#8cd0f3;}.cls-10,.cls-11,.cls-3,.cls-6,.cls-7{isolation:isolate;}.cls-11,.cls-3{opacity:0.1;}.cls-4{fill:#121c3f;}.cls-5{fill:#2856b8;}.cls-6{fill:#fff;}.cls-10,.cls-6{opacity:0.2;}.cls-7{fill:#18218a;opacity:0.5;}.cls-8{fill:#182a7c;}.cls-9{fill:#3f8ffe;}.cls-10{fill:none;stroke:#fff;stroke-miterlimit:10;}</style></defs><g id="Layer_2" data-name="Layer 2"><g id="Layer_1-2" data-name="Layer 1"><g id="car-blue-boy-in-front" class="cls-1"><path id="Path_102" data-name="Path 102" class="cls-2" d="M29.29,23.09s15.59-15.37,28.07-18A92.14,92.14,0,0,1,89.06,0c17.18.49,24.3,4.33,28.51,1.86L98.66,6.47Z"/><path id="Path_103" data-name="Path 103" class="cls-3" d="M29.29,23.09s15.59-15.37,28.07-18A92.14,92.14,0,0,1,89.06,0c17.18.49,24.3,4.33,28.51,1.86L98.66,6.47Z"/><path id="Path_104" data-name="Path 104" class="cls-4" d="M118.1,22.64,8,46.05l.45-12.77,17.66-9L115,7.87Z"/><path id="Path_105" data-name="Path 105" class="cls-5" d="M122.28,13.84l.83,3.87s-2.77,3.06-2.67,5a48,48,0,0,1-5.76,2.47l-.39.1a11.25,11.25,0,0,0,.12-1.83,11.6,11.6,0,1,0-21,6.88L87,31.66a.75.75,0,0,0-.14.1c-.31.22-1,.8-1,1.46L33.31,44.41l-1.08.22a10.47,10.47,0,0,0,.36-1.33,11.22,11.22,0,0,0,.25-2.52,11.61,11.61,0,1,0-20.17,8c-.79,0-2.54-.2-2.54-.2S3,49.3.87,48.11l.23-.24,1-1L1.13,45a1.21,1.21,0,0,1-.21-.24,1.88,1.88,0,0,1-.14-1.78c.49-1.35-.78-5.5-.78-5.5S8.62,28.3,28.19,22.51a2.92,2.92,0,0,0,1.55.13,6.54,6.54,0,0,0,2.61-1s1.79.4,7.92-5.1A50,50,0,0,1,66.17,3.26S82-1.12,96.79,1.25a86.27,86.27,0,0,0,14.44,1.24A32.15,32.15,0,0,0,117,2l.55-.11s.37,1.77.91,3.84h0c.18.72.39,1.47.62,2.2V8c.61,2,1.32,3.84,1.94,4.1Z"/><path id="Path_106" data-name="Path 106" class="cls-2" d="M1.57,36.92A15.1,15.1,0,0,1,11,32s-4.22,5.08-6.56,5.31L4,37.1l-2.28.62S1.27,37.25,1.57,36.92Z"/><path id="Path_107" data-name="Path 107" class="cls-6" d="M7.2,42l.44,2.06a2.21,2.21,0,0,1-1.5,2.45l-5,1.33,1-1L1.14,45a1.21,1.21,0,0,1-.21-.24,6.1,6.1,0,0,1,3.49-2.1Z"/><path id="Path_108" data-name="Path 108" class="cls-6" d="M29,28.37l3.86-1a7.26,7.26,0,0,1-2.4,1.93C29.37,29.67,29,28.37,29,28.37Z"/><path id="Path_109" data-name="Path 109" class="cls-6" d="M39.72,38.45S73.93,26.05,82.78,25.8c0,0,2.55-.37,3.71.44s.07.35.07.35Z"/><path id="Path_110" data-name="Path 110" class="cls-7" d="M56.53,20.5s.27-.93,1-1.11l4.64-1.24a1.18,1.18,0,0,1-.72,1.09Z"/><path id="Path_111" data-name="Path 111" class="cls-7" d="M83.41,13.31s.27-.94,1-1.11L89,11A1.17,1.17,0,0,1,88.32,12Z"/><path id="Path_112" data-name="Path 112" class="cls-2" d="M64.93,5.27,63.34,15.49l-13,2.77L38.72,20.74s1.47-1.65,3.92-3.87c.81-.73,1.73-1.53,2.75-2.35s1.94-1.54,3-2.31c.84-.6,1.73-1.2,2.65-1.77C55.21,7.83,60,5.65,64.93,5.27Z"/><path id="Path_113" data-name="Path 113" class="cls-2" d="M86.83,7.82s-5.26,2-10.32,3.66c-1.93.65-3.83,1.26-5.4,1.71l-.22.06c-.61.17-1.17.32-1.66.43a6.17,6.17,0,0,1-1.66.24l-.42-9.36s1.85-.38,4.61-.82l.6-.1,1.82-.27L77,3c4.77-.56,10.24-.92,13.89-.25C98.7,4.19,86.83,7.82,86.83,7.82Z"/><path id="Path_114" data-name="Path 114" class="cls-2" d="M112.81,7.05l.52,2.41s-3.89.89-3.22-.07a12.58,12.58,0,0,0,1.11-2Z"/><circle id="Ellipse_19" data-name="Ellipse 19" class="cls-8" cx="21.23" cy="40.92" r="9.26"/><path id="Path_116" data-name="Path 116" class="cls-9" d="M28.5,39.36A7.48,7.48,0,1,1,28,37.92,7.35,7.35,0,0,1,28.5,39.36Z"/><ellipse id="Ellipse_20" data-name="Ellipse 20" class="cls-7" cx="21.22" cy="40.91" rx="6.39" ry="6.4" transform="translate(-8.05 5.31) rotate(-12.01)"/><path id="Path_117" data-name="Path 117" class="cls-9" d="M21.82,33.47l.06.27-.61,7.33-3.22-6.91A7.55,7.55,0,0,1,21.82,33.47Z"/><path id="Path_118" data-name="Path 118" class="cls-9" d="M24.78,47.47a7.51,7.51,0,0,1-3.63.9l.11-7.3Z"/><path id="Path_119" data-name="Path 119" class="cls-9" d="M28.5,39.36a7.52,7.52,0,0,1,.13,2.32h0l-7.33-.61L28,37.92A7.32,7.32,0,0,1,28.5,39.36Z"/><path id="Path_120" data-name="Path 120" class="cls-9" d="M21.27,41.07l-6.45,3.54h-.05a7.54,7.54,0,0,1-1-3.68Z"/><circle id="Ellipse_21" data-name="Ellipse 21" class="cls-8" cx="21.22" cy="40.91" r="0.82"/><circle id="Ellipse_22" data-name="Ellipse 22" class="cls-8" cx="102.75" cy="23.58" r="9.26"/><path id="Path_121" data-name="Path 121" class="cls-9" d="M110,22a7.47,7.47,0,1,1-.47-1.44A6.74,6.74,0,0,1,110,22Z"/><ellipse id="Ellipse_23" data-name="Ellipse 23" class="cls-7" cx="102.74" cy="23.57" rx="6.39" ry="6.4" transform="translate(-2.66 21.89) rotate(-12.01)"/><path id="Path_122" data-name="Path 122" class="cls-9" d="M103.35,16.14l.05.26-.61,7.33-3.22-6.91A7.46,7.46,0,0,1,103.35,16.14Z"/><path id="Path_123" data-name="Path 123" class="cls-9" d="M106.31,30.13a7.58,7.58,0,0,1-3.64.9l.12-7.3Z"/><path id="Path_124" data-name="Path 124" class="cls-9" d="M110,22a7.18,7.18,0,0,1,.13,2.31h0l-7.33-.62,6.77-3.15A7.2,7.2,0,0,1,110,22Z"/><path id="Path_125" data-name="Path 125" class="cls-9" d="M102.79,23.73l-6.45,3.54h0a7.5,7.5,0,0,1-1-3.67Z"/><circle id="Ellipse_24" data-name="Ellipse 24" class="cls-8" cx="102.74" cy="23.57" r="0.82"/><path id="Path_126" data-name="Path 126" class="cls-6" d="M45.39,14.53l-1.3,5.07-2.52.53,1.07-3.25C43.45,16.15,44.38,15.35,45.39,14.53Z"/><path id="Path_127" data-name="Path 127" class="cls-6" d="M51.05,10.45l-.71,7.81L47,19l1.41-6.75C49.25,11.62,50.14,11,51.05,10.45Z"/><path id="Path_128" data-name="Path 128" class="cls-6" d="M74.18,3.38l-3.07,9.81-.22.06-1.65.44,2.53-9.94.6-.1Z"/><path id="Path_129" data-name="Path 129" class="cls-10" d="M38.8,20.69l1.31,20,23.44-5.52-.13-19.64Z"/><path id="Path_130" data-name="Path 130" class="cls-7" d="M86.89,31.75c-.31.23-1,.81-1,1.47L33.3,44.4l-1.07.22a11.67,11.67,0,0,0,.36-1.32Z"/><path id="Path_152" data-name="Path 152" class="cls-11" d="M63.12,28.27h0S64.74,27.42,63.12,28.27Z"/><path id="Path_154" data-name="Path 154" class="cls-11" d="M79.65,34.07l.06.26A.58.58,0,0,1,79.65,34.07Z"/></g></g></g></svg>