<svg xmlns="http://www.w3.org/2000/svg" viewBox="0 0 84.94 56.27"><defs><style>.cls-1{opacity:0.79;}.cls-2{fill:#36334a;}.cls-3,.cls-6,.cls-7{isolation:isolate;}.cls-3{opacity:0.1;}.cls-4{fill:#3f3d56;}.cls-5,.cls-7{fill:#6c63ff;}.cls-6,.cls-7{opacity:0.2;}.cls-8{fill:#f2f2f2;}</style></defs><g id="Layer_2" data-name="Layer 2"><g id="Layer_1-2" data-name="Layer 1"><g id="car-1-dark-girl-on-it" class="cls-1"><path id="Path_21" data-name="Path 21" class="cls-2" d="M84.17,16.1c.06.15.12.3.17.45a11.26,11.26,0,0,1,.45,1.82c.51,3.05-.31,5.88-2.17,7.34a4.52,4.52,0,0,1-1.21.69c-3.23,1.24-7.24-1.36-8.94-5.81s-.48-9.06,2.76-10.3c3-1.17,6.74,1.05,8.6,5C84,15.55,84.07,15.82,84.17,16.1Z"/><path id="Path_22" data-name="Path 22" class="cls-3" d="M84.34,16.55a11.26,11.26,0,0,1,.45,1.82c.51,3.05-.32,5.88-2.17,7.34-1.91-.13-4.19-2.47-5.47-5.81-1.5-3.91-1.06-7.72,1-8.5,1.71-.66,4,1,5.6,3.9C83.94,15.69,84.15,16.11,84.34,16.55Z"/><path id="Path_23" data-name="Path 23" class="cls-4" d="M47.93,9.56S62.52.22,72,0c0,0,1.47.14.65,1.67,0,0,1.63.79-.23,2l-7.9,3.6-15.84,4.3Z"/><path id="Path_24" data-name="Path 24" class="cls-3" d="M50.86,8.9S63.35.9,71.5.72c0,0,1.26.12.55,1.43,0,0,1.4.67-.2,1.72L65.09,7,51.53,10.64Z"/><path id="Path_25" data-name="Path 25" class="cls-5" d="M68.18,7.84l-1.87-1.7S66,3.82,62,4.64A2.44,2.44,0,0,0,59,3.88a2.45,2.45,0,0,0-1.67,2.44c-.52.25-1.08.54-1.66.86l.91,4.94L56.42,12S56,9.22,50.93,10.74a1.93,1.93,0,0,0,0-1.32A2.36,2.36,0,0,0,47.8,8.29a2.36,2.36,0,0,0-1.56,2.92,2,2,0,0,0,1,1.06c-.44.22-.91.46-1.39.72l1,5.57,4.73-1.11,6.72-3.79-1.12-1,4.28-1Z"/><path id="Path_26" data-name="Path 26" class="cls-6" d="M68.18,7.84l-1.87-1.7S66,3.82,62,4.64A2.44,2.44,0,0,0,59,3.88a2.45,2.45,0,0,0-1.67,2.44c-.52.25-1.08.54-1.66.86l.91,4.94L56.42,12S56,9.22,50.93,10.74a1.93,1.93,0,0,0,0-1.32A2.36,2.36,0,0,0,47.8,8.29a2.36,2.36,0,0,0-1.56,2.92,2,2,0,0,0,1,1.06c-.44.22-.91.46-1.39.72l1,5.57,4.73-1.11,6.72-3.79-1.12-1,4.28-1Z"/><path id="Path_27" data-name="Path 27" class="cls-5" d="M51.24,9S49,5.3,52.24,4s4.4,4.88,4.4,4.88,2.67-.42,3.21.48-8.06,4.51-8.06,4.51Z"/><path id="Path_28" data-name="Path 28" class="cls-2" d="M53.53,32.05c1.79,4.67-.22,9.78-4.5,11.42s-9.2-.81-11-5.47,0-10.55,4.26-12.19S51.74,27.38,53.53,32.05Z"/><ellipse id="Ellipse_8" data-name="Ellipse 8" class="cls-3" cx="45.92" cy="35.37" rx="6.6" ry="7.64" transform="translate(-9.63 18.81) rotate(-21)"/><ellipse id="Ellipse_9" data-name="Ellipse 9" class="cls-2" cx="11.42" cy="47.31" rx="8.3" ry="9.05" transform="matrix(0.93, -0.36, 0.36, 0.93, -16.19, 7.23)"/><path id="Path_29" data-name="Path 29" class="cls-2" d="M16.88,22.08s-3.54,1.56-2.62,3.43,3.28-.65,3.28-.65Z"/><path id="Path_30" data-name="Path 30" class="cls-4" d="M48.15,13.78,45.83,3.29s-.12-1.36-4.88.46c0,0-15.6,4.88-18.86,8,0,0-3.85,3.39-6.78,14.42C15.3,26.12,47.74,14.54,48.15,13.78Z"/><path id="Path_31" data-name="Path 31" class="cls-2" d="M43.63,3.63l1.43,11.88-1.72.61L35.16,19l-18.23,6.5c-.38-.84,4.78-13,4.78-13Z"/><path id="Path_32" data-name="Path 32" class="cls-7" d="M35.16,19l-.35-3.13s-2.22-3.68,1-5,4.4,4.88,4.4,4.88,2.42-.38,3.12.37Z"/><path id="Path_33" data-name="Path 33" class="cls-4" d="M84,15.46c-2.49-4.9-6.21-4.73-6.21-4.73-3.24,1-.72,13.91-.72,13.91L53.51,36.2s-3.1-10.58-9.64-10-3.47,13.2-3.09,15S5.15,54.66,3.91,54.33.42,47.08.48,46.45.34,43.17.34,43.17a5,5,0,0,1-.19-2,6.8,6.8,0,0,1,.07-.71,7.43,7.43,0,0,1,2.91-7.37h0c.65-1.46,10.15-5.92,10.15-5.92l3.43-2.12L47,14.12l1.28-.46,15-6.6L73.43,2.59c2.38-.91,5.92,4.6,5.92,4.6C83.57,11.63,84,15.46,84,15.46Z"/><ellipse id="Ellipse_10" data-name="Ellipse 10" class="cls-3" cx="30.37" cy="27.08" rx="4.85" ry="3.04" transform="translate(-10.31 27.93) rotate(-42.92)"/><ellipse id="Ellipse_11" data-name="Ellipse 11" class="cls-8" cx="30.06" cy="26.79" rx="4.85" ry="3.04" transform="translate(-10.2 27.64) rotate(-42.92)"/><path id="Path_34" data-name="Path 34" class="cls-3" d="M3.37,33.23a7.5,7.5,0,0,1,0,3.85c-.53,2.38-1.82,4.15-3,4.23,0-.41.07-.71.07-.71A7.43,7.43,0,0,1,3.37,33.23Z"/><path id="Path_35" data-name="Path 35" class="cls-8" d="M3,33.16a7.61,7.61,0,0,1,0,3.85c-.53,2.37-1.82,4.15-3,4.23,0-.41.07-.71.07-.71A7.43,7.43,0,0,1,3,33.16Z"/><path id="Path_36" data-name="Path 36" class="cls-2" d="M16.39,31.06l-7,2.66-.72-.83,8.45-3.24Z"/><rect id="Rectangle_15" data-name="Rectangle 15" class="cls-2" x="6.33" y="40.87" width="12.26" height="3.58" transform="translate(-14.46 7.3) rotate(-21)"/><circle id="Ellipse_12" data-name="Ellipse 12" class="cls-3" cx="31.79" cy="39.08" r="1.7"/><circle id="Ellipse_13" data-name="Ellipse 13" class="cls-8" cx="31.51" cy="38.88" r="1.7"/><ellipse id="Ellipse_14" data-name="Ellipse 14" class="cls-3" cx="2.53" cy="48.9" rx="0.85" ry="1.79" transform="translate(-17.35 4.16) rotate(-21)"/><ellipse id="Ellipse_15" data-name="Ellipse 15" class="cls-8" cx="2.24" cy="48.91" rx="0.85" ry="1.79" transform="translate(-17.38 4.05) rotate(-21)"/><path id="Path_37" data-name="Path 37" class="cls-2" d="M69.34,15.07a35.46,35.46,0,0,0,1.88,8.07l.12,1.37L54.92,33s-3.22-8.66-4.51-12.81A17.74,17.74,0,0,0,47,14.12l1.29-.46,15-6.6C66.53,7.87,69.17,12.05,69.34,15.07Z"/><path id="Path_38" data-name="Path 38" class="cls-8" d="M63.35,11.18a.46.46,0,0,0-.22.62l0,0a.32.32,0,0,0,.26.17,13.75,13.75,0,0,0,2.78-1.42.53.53,0,0,0,.24-.59.2.2,0,0,0-.31-.14Z"/><path id="Path_39" data-name="Path 39" class="cls-2" d="M46.84,13.81a2,2,0,0,0,2.79.55,1.78,1.78,0,0,0,.27-.21l-.35-3-1.71-.26Z"/><path id="Path_40" data-name="Path 40" class="cls-2" d="M47.91,8.89A3.62,3.62,0,0,1,52,7.47a1.92,1.92,0,0,1,1.34,2c-.08,1.27-.82,2.89-4.1,2.55a1.89,1.89,0,0,1-.9-.33l0,0A1.92,1.92,0,0,1,47.86,9Z"/><circle id="Ellipse_16" data-name="Ellipse 16" class="cls-8" cx="45.81" cy="34.96" r="1.89"/><ellipse id="Ellipse_17" data-name="Ellipse 17" class="cls-8" cx="80.95" cy="17.84" rx="1.04" ry="1.89" transform="translate(-1.02 30.2) rotate(-21)"/><path id="Rectangle_16" data-name="Rectangle 16" class="cls-2" d="M43.69,29.56h0a1.24,1.24,0,0,1,1.59.71l.3.79a1.22,1.22,0,0,1-.71,1.58h0a1.21,1.21,0,0,1-1.58-.7l-.3-.79A1.23,1.23,0,0,1,43.69,29.56Z"/><path id="Path_41" data-name="Path 41" class="cls-2" d="M78.79,12.2h0a.66.66,0,0,1,.85.38h0L80.18,14a1.12,1.12,0,0,1-.65,1.46h0a.66.66,0,0,1-.85-.38l-.54-1.41A1.13,1.13,0,0,1,78.79,12.2Z"/><path id="Path_42" data-name="Path 42" class="cls-2" d="M83.11,23.47h0a1.14,1.14,0,0,1-1.46-.65l-.37-1a1.13,1.13,0,0,1,.65-1.46h0c.58-.22.71.27.94.85l.37,1C83.46,22.79,83.7,23.25,83.11,23.47Z"/><path id="Path_43" data-name="Path 43" class="cls-2" d="M77.7,17.27h0a1.13,1.13,0,0,1,1.47.65h0l.5,1.32a.75.75,0,0,1-.43,1h0a1.13,1.13,0,0,1-1.46-.65h0l-.51-1.32A.74.74,0,0,1,77.7,17.27Z"/><path id="Path_44" data-name="Path 44" class="cls-2" d="M84.17,16.1c.06.15.12.3.17.45a11.26,11.26,0,0,1,.45,1.82l-.17.08a1.13,1.13,0,0,1-1.46-.65l-.37-1a1.13,1.13,0,0,1,.65-1.46h0a1,1,0,0,1,.29-.07h.1C84,15.55,84.07,15.82,84.17,16.1Z"/><path id="Rectangle_17" data-name="Rectangle 17" class="cls-2" d="M49.57,31.6h0a1.24,1.24,0,0,1,1.59.7l.3.8a1.22,1.22,0,0,1-.7,1.58h0A1.23,1.23,0,0,1,49.17,34l-.3-.79A1.21,1.21,0,0,1,49.57,31.6Z"/><path id="Rectangle_18" data-name="Rectangle 18" class="cls-2" d="M41,34.91h0a1.22,1.22,0,0,1,1.58.7l.3.8a1.21,1.21,0,0,1-.7,1.58h0a1.22,1.22,0,0,1-1.58-.7l-.31-.8A1.22,1.22,0,0,1,41,34.91Z"/><path id="Rectangle_19" data-name="Rectangle 19" class="cls-2" d="M46.93,37.87h0a1.21,1.21,0,0,1,1.58.7l.31.79A1.24,1.24,0,0,1,48.11,41h0a1.23,1.23,0,0,1-1.58-.71l-.31-.79A1.23,1.23,0,0,1,46.93,37.87Z"/></g></g></g></svg>