<svg xmlns="http://www.w3.org/2000/svg" viewBox="0 0 106.94 66.52"><defs><style>.cls-1{opacity:0.92;}.cls-2{fill:#cacaca;}.cls-3{fill:#fff;}.cls-4{fill:#3f3d56;}.cls-5{fill:#2f2e41;}.cls-6{fill:#6c63ff;}.cls-7{fill:#e4e4e4;}</style></defs><g id="Layer_2" data-name="Layer 2"><g id="Layer_1-2" data-name="Layer 1"><g id="car-purple-trying-to-open-gate" class="cls-1"><path id="Path_156" data-name="Path 156" class="cls-2" d="M0,41.7v0Z"/><path id="Path_157" data-name="Path 157" class="cls-3" d="M24.23,44.14l-1.11.68-.09-.4Z"/><rect id="Rectangle_27" data-name="Rectangle 27" class="cls-3" x="46.88" y="3.23" width="3.91" height="3.91" transform="translate(0.09 11.12) rotate(-13)"/><rect id="Rectangle_28" data-name="Rectangle 28" class="cls-3" x="53.03" y="1.81" width="3.91" height="3.91" transform="translate(0.56 12.47) rotate(-13)"/><rect id="Rectangle_29" data-name="Rectangle 29" class="cls-3" x="59.17" y="0.39" width="3.91" height="3.91" transform="translate(1.04 13.81) rotate(-13)"/><rect id="Rectangle_30" data-name="Rectangle 30" class="cls-3" x="48.99" y="11.89" width="3.91" height="3.91" transform="translate(-1.81 11.82) rotate(-13)"/><rect id="Rectangle_31" data-name="Rectangle 31" class="cls-3" x="55.14" y="10.47" width="3.91" height="3.91" transform="translate(-1.33 13.16) rotate(-13)"/><rect id="Rectangle_32" data-name="Rectangle 32" class="cls-3" x="61.28" y="9.06" width="3.91" height="3.91" transform="translate(-0.86 14.51) rotate(-13)"/><rect id="Rectangle_33" data-name="Rectangle 33" class="cls-3" x="51.1" y="20.56" width="3.91" height="3.91" transform="translate(-3.7 12.51) rotate(-13)"/><rect id="Rectangle_34" data-name="Rectangle 34" class="cls-3" x="57.25" y="19.14" width="3.91" height="3.91" transform="translate(-3.23 13.86) rotate(-13)"/><rect id="Rectangle_35" data-name="Rectangle 35" class="cls-3" x="63.4" y="17.72" width="3.91" height="3.91" transform="translate(-2.75 15.21) rotate(-13)"/><rect id="Rectangle_36" data-name="Rectangle 36" class="cls-3" x="53.22" y="29.22" width="3.91" height="3.91" transform="translate(-5.6 13.21) rotate(-13)"/><rect id="Rectangle_37" data-name="Rectangle 37" class="cls-3" x="59.36" y="27.8" width="3.91" height="3.91" transform="translate(-5.12 14.56) rotate(-13)"/><rect id="Rectangle_38" data-name="Rectangle 38" class="cls-3" x="65.51" y="26.39" width="3.91" height="3.91" transform="translate(-4.65 15.9) rotate(-13)"/><rect id="Rectangle_39" data-name="Rectangle 39" class="cls-3" x="55.33" y="37.89" width="3.91" height="3.91" transform="translate(-7.5 13.91) rotate(-13)"/><rect id="Rectangle_40" data-name="Rectangle 40" class="cls-3" x="61.47" y="36.47" width="3.91" height="3.91" transform="translate(-7.02 15.25) rotate(-13)"/><rect id="Rectangle_41" data-name="Rectangle 41" class="cls-3" x="67.62" y="35.05" width="3.91" height="3.91" transform="translate(-6.54 16.6) rotate(-13)"/><path id="Path_160" data-name="Path 160" class="cls-3" d="M60.87,46.16l.45,2c-.71-.11-1.42-.24-2.12-.38s-1.4-.29-2.09-.45L57.05,47Z"/><path id="Path_161" data-name="Path 161" class="cls-3" d="M67,44.74l.88,3.82-1.15.27c-.76-.07-1.51-.15-2.27-.24l-.61-.07-.66-2.89Z"/><rect id="Rectangle_42" data-name="Rectangle 42" class="cls-3" x="69.73" y="43.72" width="3.91" height="3.91" transform="translate(-8.44 17.3) rotate(-13)"/><rect id="Rectangle_44" data-name="Rectangle 44" class="cls-3" x="82.89" y="13.22" width="3.91" height="3.91" transform="translate(-1.24 19.48) rotate(-13)"/><rect id="Rectangle_45" data-name="Rectangle 45" class="cls-3" x="89.04" y="11.8" width="3.91" height="3.91" transform="translate(-0.76 20.82) rotate(-13)"/><rect id="Rectangle_47" data-name="Rectangle 47" class="cls-3" x="85.01" y="21.88" width="3.91" height="3.91" transform="translate(-3.13 20.17) rotate(-13)"/><rect id="Rectangle_48" data-name="Rectangle 48" class="cls-3" x="91.15" y="20.47" width="3.91" height="3.91" transform="translate(-2.66 21.52) rotate(-13)"/><rect id="Rectangle_49" data-name="Rectangle 49" class="cls-3" x="97.3" y="19.05" width="3.91" height="3.91" transform="translate(-2.18 22.87) rotate(-13)"/><rect id="Rectangle_50" data-name="Rectangle 50" class="cls-3" x="87.12" y="30.55" width="3.91" height="3.91" transform="translate(-5.03 20.87) rotate(-13)"/><rect id="Rectangle_51" data-name="Rectangle 51" class="cls-3" x="93.27" y="29.13" width="3.91" height="3.91" transform="translate(-4.55 22.22) rotate(-13)"/><rect id="Rectangle_52" data-name="Rectangle 52" class="cls-3" x="99.41" y="27.71" width="3.91" height="3.91" transform="translate(-4.08 23.56) rotate(-13)"/><rect id="Rectangle_53" data-name="Rectangle 53" class="cls-3" x="89.23" y="39.21" width="3.91" height="3.91" transform="translate(-6.92 21.57) rotate(-13)"/><rect id="Rectangle_54" data-name="Rectangle 54" class="cls-3" x="95.38" y="37.8" width="3.91" height="3.91" transform="translate(-6.45 22.91) rotate(-13)"/><rect id="Rectangle_55" data-name="Rectangle 55" class="cls-3" x="101.52" y="36.38" width="3.91" height="3.91" transform="translate(-5.97 24.26) rotate(-13)"/><path id="Path_164" data-name="Path 164" class="cls-4" d="M88.45,48.57a7,7,0,0,0,8.11,3,10.24,10.24,0,0,0,7-6.57Z"/><path id="Path_165" data-name="Path 165" class="cls-5" d="M5.78,47.83l-.93,3.35L6.4,56.7,48,59.28l17.43-1.83L57.43,38l-12.07.62L28.09,43.14l-15.37.69Z"/><path id="Path_166" data-name="Path 166" class="cls-4" d="M15.72,66.15l-1,.23a5.22,5.22,0,0,1-5.31-1.87c-2.33-3-2.95-7.8-3-7.87-.58-4.12,1-7.27,4-7.83,3.28-.62,8.65,10,8.87,10.44a4.29,4.29,0,0,1,.42,2.47A5.21,5.21,0,0,1,15.72,66.15Z"/><path id="Path_167" data-name="Path 167" class="cls-4" d="M58.46,64.41a3,3,0,0,1-.52.07,8.12,8.12,0,0,1-7-3.18c-.61-.79-1.21-1.61-1.79-2.42C46.8,55.59,46.56,49,48,46.05c1.26-2.57,3-3,5.73-3.56l.86-.19c3-.69,8.68,9.57,10.55,12.93l.37.66a3.68,3.68,0,0,1,.39,2,6.15,6.15,0,0,1-4.19,5.54C60,64,58.89,64.32,58.46,64.41Z"/><path id="Path_168" data-name="Path 168" class="cls-4" d="M6.4,56.7S4.08,51.87,5,48l.76-4.56L13.67,48l3.68,9.13,26.39-2S38.58,39.94,48.35,37,66.7,49.8,66.7,49.8l5.78,2.46,33.9-10.51s1,1.53.32,2.61S64.8,57.83,64.8,57.83,57.89,37.51,50,41.37s-2,17.91-2,17.91L17,60.91S12.76,47,7.84,48.14,6.4,56.7,6.4,56.7Z"/><path id="Path_169" data-name="Path 169" class="cls-4" d="M8.19,37.65l3.58-10.11,23.64-6.93,26.67-5.79,15,8.64-37.76,11L8.17,39.93Z"/><path id="Path_170" data-name="Path 170" class="cls-6" d="M8.19,37.65S3.43,38.85,5,48c0,0,3-10.39,12.09,9.14l27.17-1.79s-4.91-16.9,5.31-17.87S65.78,51.68,65.78,51.68s2.83,3.41,13.3.35,26.14-7.7,27.3-10.28c0,0,.84-14-13.12-19.61L77.11,23.46,41.9,32.33Z"/><path id="Path_171" data-name="Path 171" class="cls-2" d="M21.59,41l-3,.69a.65.65,0,0,1-.76-.48.64.64,0,0,1,.48-.75l3-.69a.63.63,0,0,1,.76.47A.65.65,0,0,1,21.59,41Z"/><circle id="Ellipse_25" data-name="Ellipse 25" class="cls-3" cx="70.97" cy="47.71" r="1.98"/><path id="Path_172" data-name="Path 172" class="cls-3" d="M67.82,38.46a7.6,7.6,0,0,1-4.69-.67c-2.94-1.34-4.64-3.93-3.79-5.77s3.92-2.25,6.86-.9a7.9,7.9,0,0,1,3.31,2.69A3.19,3.19,0,0,1,70,36.9,3,3,0,0,1,67.82,38.46Z"/><path id="Path_173" data-name="Path 173" class="cls-3" d="M101.57,28.08c-1,.23-2.95-.35-5-1.55a13.73,13.73,0,0,1-3.08-2.33c-.75-.8-1-1.47-.8-1.87s1-.51,2-.28a13.67,13.67,0,0,1,3.58,1.48c2.65,1.51,4.35,3.36,3.87,4.2A.77.77,0,0,1,101.57,28.08Z"/><path id="Path_174" data-name="Path 174" class="cls-3" d="M17.38,35.52l-.06,0-6.48.87a.7.7,0,0,1-.79-.6.58.58,0,0,1,0-.32l2.25-6.59a.68.68,0,0,1,.47-.45l4.69-1.31a.71.71,0,0,1,.86.49.93.93,0,0,1,0,.23l-.45,7A.68.68,0,0,1,17.38,35.52Z"/><path id="Path_175" data-name="Path 175" class="cls-3" d="M34.42,33l-.2,0L23,34.5a2,2,0,0,1-2.19-1.7,1.72,1.72,0,0,1,0-.32L21,26.32a2,2,0,0,1,1.45-1.82l8.78-2.35a2,2,0,0,1,2.36,1.24l2.19,6.13a2,2,0,0,1,.11.64v.92A2,2,0,0,1,34.42,33Z"/><path id="Path_176" data-name="Path 176" class="cls-3" d="M43.05,31.34a1.46,1.46,0,0,1-1.64-.78l-3.87-7.92a1.47,1.47,0,0,1,.67-1.95,1.92,1.92,0,0,1,.31-.11l22.95-5.3a1.51,1.51,0,0,1,1.12.2l9.28,6a1.47,1.47,0,0,1,.44,2,1.49,1.49,0,0,1-.87.62L43.08,31.33Z"/><path id="Path_177" data-name="Path 177" class="cls-6" d="M11.65,27.9l.13-.36s.41-3.42,16-7.57,30.31-7.28,34.31-5.15L34.94,21,12.4,27.86Z"/><path id="Path_178" data-name="Path 178" class="cls-7" d="M9.41,52.12C7.76,52.5,7.06,55.56,7.84,59s2.76,5.83,4.4,5.45S14.6,61,13.81,57.57,11.06,51.74,9.41,52.12Zm.44,1.29c.36-.09.82.55,1,1.43s.07,1.64-.29,1.73-.82-.56-1-1.43S9.48,53.49,9.85,53.41Zm1.5,4.73a.5.5,0,0,1-.32.63.55.55,0,0,1-.24-1.06A.51.51,0,0,1,11.35,58.14ZM9.14,59c-.55.18-1.06.13-1.13-.1s.31-.56.87-.74,1.06-.12,1.13.11S9.7,58.84,9.14,59Zm2.94,4.05c-.37.08-.82-.55-1-1.43S11,60,11.35,59.9s.82.56,1,1.43S12.44,63,12.08,63.06Zm.66-4.88c-.55.18-1.06.13-1.13-.1s.31-.56.87-.73,1.06-.13,1.13.1S13.29,58,12.74,58.18Z"/><path id="Path_179" data-name="Path 179" class="cls-7" d="M52.05,46.62c-2.62.61-3.93,4.61-2.93,9s3.94,7.37,6.55,6.76,3.93-4.61,2.93-8.95S54.66,46,52.05,46.62Zm-.89,9.1c-.75.24-1.43.17-1.53-.14s.43-.76,1.18-1,1.44-.17,1.54.14S51.92,55.49,51.16,55.72Zm4.22,5.34c-.49.11-1.11-.75-1.38-1.94s-.1-2.23.39-2.35,1.11.75,1.39,1.94.09,2.23-.4,2.35Zm-2.21-6.38a.73.73,0,1,1,.9.68A.79.79,0,0,1,53.17,54.68Zm.18-2.42c-.49.12-1.11-.75-1.39-1.94s-.09-2.23.4-2.34,1.11.75,1.39,1.93S53.84,52.15,53.35,52.26ZM57,54.2c-.75.23-1.44.17-1.53-.15s.43-.75,1.18-1,1.44-.17,1.53.14-.43.76-1.18,1Z"/><path id="Path_180" data-name="Path 180" class="cls-2" d="M31.83,34.74,33.45,37s1.92.3,2.52-2.34l-2.85-1.78Z"/><path id="Path_181" data-name="Path 181" class="cls-2" d="M30.52,35.65c-1.89.43-3.66-.23-3.95-1.49s1-2.64,2.89-3.07,3.66.23,3.95,1.49S32.4,35.21,30.52,35.65Z"/><path id="Path_182" data-name="Path 182" class="cls-4" d="M98.36,28.44,78.88,33.55s-4,2.19-3.66,5.74c0,0,1.26,2.66,2.84,2.3s25.47-7.21,25.47-7.21,1-2.77-.69-4.19A10,10,0,0,0,98.36,28.44Z"/><rect id="Rectangle_56" data-name="Rectangle 56" class="cls-7" x="77.12" y="32.18" width="23.62" height="0.27" transform="matrix(0.97, -0.26, 0.26, 0.97, -5.32, 23.94)"/><rect id="Rectangle_57" data-name="Rectangle 57" class="cls-7" x="76.15" y="33.24" width="25.71" height="0.27" transform="translate(-5.7 25.15) rotate(-15.59)"/><rect id="Rectangle_58" data-name="Rectangle 58" class="cls-7" x="75.48" y="34.53" width="27.58" height="0.27" transform="translate(-6.11 26.07) rotate(-16.07)"/></g></g></g></svg>