<svg xmlns="http://www.w3.org/2000/svg" viewBox="0 0 83.12 56.08"><defs><style>.cls-1{opacity:0.82;}.cls-2{fill:#65617d;}.cls-3{fill:#dce0ed;}.cls-4,.cls-7,.cls-9{isolation:isolate;}.cls-4,.cls-7{opacity:0.1;}.cls-5{fill:#f0f0f4;}.cls-6{fill:#636780;}.cls-7{fill:#fff;}.cls-8{fill:#6c63ff;}.cls-9{opacity:0.15;}</style></defs><g id="Layer_2" data-name="Layer 2"><g id="Layer_1-2" data-name="Layer 1"><g id="car-jeep" class="cls-1"><path id="Path_183" data-name="Path 183" class="cls-2" d="M37.59,2.43c2.3,1.71,5.61,7.77,6.58,9.6l2.8-1c-.68-1.62-6.18-7.35-7.7-8.92Z"/><rect id="Rectangle_59" data-name="Rectangle 59" class="cls-3" x="2.1" y="12.22" width="1.32" height="1.85" transform="translate(-3.71 1.37) rotate(-16.92)"/><path id="Path_184" data-name="Path 184" class="cls-4" d="M1.86,12.45,2,13a.92.92,0,0,0,.29,0l1-.31-.18-.61Z"/><path id="Path_185" data-name="Path 185" class="cls-3" d="M2.28,7.38l-1.19.36A1.52,1.52,0,0,0,0,9a4.26,4.26,0,0,0,1.23,3.55,1,1,0,0,0,1,.23l1.51-.47Z"/><ellipse id="Ellipse_27" data-name="Ellipse 27" class="cls-5" cx="3.03" cy="9.86" rx="1.33" ry="2.59" transform="translate(-2.74 1.31) rotate(-16.92)"/><rect id="Rectangle_60" data-name="Rectangle 60" class="cls-3" x="13.26" y="8.84" width="1.32" height="1.62" transform="translate(-2.21 4.47) rotate(-16.92)"/><path id="Path_186" data-name="Path 186" class="cls-4" d="M13.05,9.07l.15.49a1,1,0,0,0,.29-.05l1-.3-.16-.53Z"/><path id="Path_187" data-name="Path 187" class="cls-3" d="M13.47,4l-1.19.36a1.52,1.52,0,0,0-1.06,1.29A4.26,4.26,0,0,0,12.45,9.2a1,1,0,0,0,1,.23L15,9Z"/><ellipse id="Ellipse_28" data-name="Ellipse 28" class="cls-5" cx="14.22" cy="6.48" rx="1.33" ry="2.59" transform="translate(-1.27 4.42) rotate(-16.92)"/><path id="Path_188" data-name="Path 188" class="cls-3" d="M13.43,5s.49-.06.43.63a4.44,4.44,0,0,0,0,1s-.4.38-.63-.43A1.27,1.27,0,0,1,13.43,5Z"/><ellipse id="Ellipse_29" data-name="Ellipse 29" class="cls-6" cx="71.9" cy="25.87" rx="7.76" ry="8.51" transform="translate(-4.42 22.04) rotate(-16.92)"/><path id="Path_189" data-name="Path 189" class="cls-4" d="M66.8,19.09c4-.92,8.12,1.68,9.43,6a8.51,8.51,0,0,1-2.49,9.09c-4,.92-8.12-1.68-9.44-6A8.5,8.5,0,0,1,66.8,19.09Z"/><ellipse id="Ellipse_30" data-name="Ellipse 30" class="cls-6" cx="8.35" cy="25.76" rx="6.3" ry="8.22" transform="translate(-7.14 3.54) rotate(-16.92)"/><path id="Path_190" data-name="Path 190" class="cls-4" d="M7.74,17.72c2.8.2,5.54,2.66,6.63,6.23,1.16,3.81,0,7.63-2.51,9.18-2.79-.19-5.53-2.65-6.62-6.22C4.08,23.09,5.2,19.28,7.74,17.72Z"/><path id="Path_191" data-name="Path 191" class="cls-2" d="M30.49,17.2l-1-2.82s.18-1.4.71-1.69S32,12,32,12s2.25,3.79,2,5.23S30.49,17.2,30.49,17.2Z"/><path id="Path_192" data-name="Path 192" class="cls-4" d="M30.49,17.2l-1-2.82s.18-1.4.71-1.69S32,12,32,12s2.25,3.79,2,5.23S30.49,17.2,30.49,17.2Z"/><path id="Path_193" data-name="Path 193" class="cls-2" d="M40.72,13.75s-.86-4.06-3.06-3.48c-.28.08-.56.16-.85.22-1.55.31-5.76,1.24-5,2,0,0,2,3.15,1.62,4.22Z"/><path id="Path_194" data-name="Path 194" class="cls-2" d="M12.13,30.46l-2.89,1S7.1,26.21,6.81,25.84s-1-2.36-.54-2.81a15.32,15.32,0,0,1,2.17-1.38l2.28,2.66.95,2.74Z"/><path id="Path_195" data-name="Path 195" class="cls-4" d="M12.13,30.46l-2.89,1S7.1,26.21,6.81,25.84s-1-2.36-.54-2.81a15.32,15.32,0,0,1,2.17-1.38l2.28,2.66.95,2.74Z"/><path id="Path_196" data-name="Path 196" class="cls-2" d="M16.47,19.4l-.17-.61a.37.37,0,0,0-.45-.25h0c-1.42.5-6.61,2.35-7.39,3.1,0,0,3.29,7.19,2.72,9.31l2.2,5.89L26,32Z"/><path id="Path_197" data-name="Path 197" class="cls-4" d="M14.6,9.63l-1.29.27.21.72,1.26-.38Z"/><path id="Path_198" data-name="Path 198" class="cls-4" d="M2.37,14.13l0,.09,1.26-.38-.17-.55A5.65,5.65,0,0,0,2.37,14.13Z"/><path id="Path_199" data-name="Path 199" class="cls-3" d="M1.49,33.9l1.91-.55L5.16,25l.29-1.39L4,20.75l-.17.85Z"/><path id="Path_200" data-name="Path 200" class="cls-3" d="M16,19.88l1.15.94,1.38-3.88.62-1.77-.9-.68-.32.75Z"/><path id="Path_201" data-name="Path 201" class="cls-4" d="M18,15.24c0,.06,0,.13.05.19l.54,1.51.63-1.77-.91-.67Z"/><path id="Path_202" data-name="Path 202" class="cls-4" d="M3.86,21.6,5.16,25l.29-1.39L4,20.75Z"/><path id="Path_203" data-name="Path 203" class="cls-3" d="M20.86,16.8s-1.2-7.31-4.93-7.31h-.15C15,9.64,7.37,11,3.87,13.19c0,0-2.48,1.18-2,2.57L8.18,32.51l1.88-.57L6,20.82s-2.39-4.65-1-5.44S13,12,15.53,11.93c0,0,1.61-.92,2.64,3.45L19,17.64Z"/><path id="Path_204" data-name="Path 204" class="cls-2" d="M15.78,20.62a1.14,1.14,0,0,1,.15-1.1c.41-.56,1.76-1.92,1.76-1.92l.54-.11L21,20.91l2.41,8.32L21.64,33.6Z"/><path id="Path_205" data-name="Path 205" class="cls-4" d="M15.78,20.62a1.14,1.14,0,0,1,.15-1.1c.41-.56,1.76-1.92,1.76-1.92l.54-.11L21,20.91l2.41,8.32L21.64,33.6Z"/><path id="Path_206" data-name="Path 206" class="cls-2" d="M29.73,25.86l-2.64-8.48s-.75-3.38-2.75-2.84c0,0-4.64,1.45-6.46,2.72a.49.49,0,0,0-.12.66l.07.07c.61.58,1.85,2.22,3.63,6.88L23,30Z"/><path id="Path_207" data-name="Path 207" class="cls-2" d="M21.57,34.28,30,31.51h0l4.13-1.36-2.17-5.42-2.28.79-6.85,3.87L21.64,33.6Z"/><path id="Path_208" data-name="Path 208" class="cls-4" d="M21.57,34.28,30,31.51h0l4.13-1.36-2.17-5.42-2.28.79-6.85,3.87L21.64,33.6Z"/><path id="Path_209" data-name="Path 209" class="cls-2" d="M21.57,34.28,30,31.51l-1-3.77-6.17,1.65L21.64,33.6Z"/><path id="Path_210" data-name="Path 210" class="cls-7" d="M30,31.51l4.13-1.36-2.17-5.42a4.45,4.45,0,0,1-3,3Z"/><path id="Path_211" data-name="Path 211" class="cls-3" d="M1.49,45.09C2.14,46.63,3.2,46,3.2,46L3.41,46l2-.83-.84-2.45a9.94,9.94,0,0,0-2.09.78C1.79,43.85,1.21,44.4,1.49,45.09Z"/><path id="Path_212" data-name="Path 212" class="cls-4" d="M1.49,45.09C2.14,46.63,3.2,46,3.2,46L3.41,46a2.4,2.4,0,0,0,0-1.3,2.1,2.1,0,0,0-.86-1.2C1.79,43.85,1.21,44.4,1.49,45.09Z"/><path id="Path_213" data-name="Path 213" class="cls-6" d="M25.52,20.07c.79,2.59,3,4.21,4.9,3.63s2.83-3.15,2-5.74-3-4.22-4.89-3.63S24.73,17.48,25.52,20.07ZM26.93,20c-.57-1.88.15-3.76,1.61-4.21s3.11.72,3.68,2.59-.15,3.76-1.61,4.21S27.5,21.85,26.93,20Z"/><path id="Path_214" data-name="Path 214" class="cls-6" d="M29.26,20.5l-1.14,2.09-1-1.25L29,19.26Z"/><path id="Path_215" data-name="Path 215" class="cls-8" d="M22.07,5.45l-1.36.6-.34.78,1.89,3.33,3.44,5.25L28,19l1.51,2.17,1.46,3,1.16,2,2,1L36,22.8l.13-1.35.45-2.79-3.52-.51-3.46.73L26.8,15.29,24.07,11Z"/><path id="Path_216" data-name="Path 216" class="cls-2" d="M55.83,13.8l6.56,14.94L38.85,34.83l.37-8.43,3.59-4.27L32.62,25.41l-1.35-4.23L35.14,19l8.13-3.21,6.18-2.18,6.59.14"/><path id="Path_217" data-name="Path 217" class="cls-4" d="M55.83,13.8l6.56,14.94L38.85,34.83l.37-8.43,3.59-4.27L32.62,25.41l-1.35-4.23L35.14,19l8.13-3.21,6.18-2.18,6.59.14"/><path id="Path_218" data-name="Path 218" class="cls-6" d="M28.76,38.91c1.18,3.85,3.52,7,7,5.5C40.17,43,39.6,39.82,38.43,36s-4.21-6.06-6.88-5.25S27.59,35.05,28.76,38.91Z"/><path id="Path_219" data-name="Path 219" class="cls-4" d="M28.74,38.92c-.91-3-.34-5.77,1.2-7.25,2.48-.27,5.1,1.88,6.17,5.39,1,3.16,1.52,5.83-.76,7.5C32.1,45.68,29.87,42.64,28.74,38.92Z"/><path id="Path_220" data-name="Path 220" class="cls-8" d="M22.37,34.25l1.84,1.15-2.59.33L19.27,34.6l-2.64-2.78-2.74-.72L8.47,33.59,3.29,35.38.83,34.26l2.07-.95,2.17-.72,5.45-1.79L17,28.64l2.42,3.17L21.19,34Z"/><path id="Path_221" data-name="Path 221" class="cls-2" d="M5.51,46.34a33.48,33.48,0,0,0,4-.42L20.2,44.69l17.48-5,1.52-2.36,1.13-.14h0l15.11-1.81.22-.11,3.74-1.74L79,24.38l-1.13-2.89-.67-1.71-1.38-3.55-.49-.89-1.87.38-.87.18-13.6,2.82-1.78.37-1,.2-9.85,1.59L32.62,25.41l-1.35-4.23L20.71,6.05c-1.15.56-.87,1.36-.87,1.36l9.45,14.4,3,9.69C22.94,35.41,22,33.4,20.67,34.58L17,29.24l-16.2,5C.42,35.24,5.51,46.34,5.51,46.34Z"/><path id="Path_222" data-name="Path 222" class="cls-2" d="M43.1,25.28,41.31,37.9,39.74,39l-1-1.66.07-6.72.9-4.16Z"/><path id="Path_223" data-name="Path 223" class="cls-9" d="M43.1,25.28,41.31,37.9,39.74,39l-1-1.66.07-6.72.9-4.16Z"/><ellipse id="Ellipse_31" data-name="Ellipse 31" class="cls-6" cx="50.15" cy="36.43" rx="9.75" ry="11.05" transform="translate(-8.43 16.17) rotate(-16.92)"/><path id="Path_224" data-name="Path 224" class="cls-4" d="M43.81,27.53c5-1.14,10.24,2.28,11.95,7.89a11.08,11.08,0,0,1-3,11.74c-5,1.15-10.24-2.27-11.95-7.89A11.09,11.09,0,0,1,43.81,27.53Z"/><path id="Path_225" data-name="Path 225" class="cls-2" d="M69.51,10.34l1.13,2,3.44,6.24L80,16.18s0-1.23-1-1.36c0,0-1.47-3.7-3-4.55a1.18,1.18,0,0,0-.54-.17Z"/><path id="Path_226" data-name="Path 226" class="cls-7" d="M70.64,12.38l3.44,6.23L80,16.18s0-1.23-1.06-1.36c0,0-1.46-3.7-3-4.55Z"/><path id="Path_227" data-name="Path 227" class="cls-2" d="M56,15.09c-.38,1.55,5.2,13.09,5.2,13.09l14.17-7L71.62,10.74C70.74,8.93,69.55,9,69.55,9,63.48,8,51.22,11.1,51.22,11.1A92.29,92.29,0,0,0,31.27,21.18,68.44,68.44,0,0,1,56,15.09Z"/><path id="Path_228" data-name="Path 228" class="cls-4" d="M61.22,28.18l14.16-7L71.62,10.74C70.74,8.93,69.55,9,69.55,9S58.35,11.32,56,15.09C55.63,16.64,61.22,28.18,61.22,28.18Z"/><path id="Path_229" data-name="Path 229" class="cls-2" d="M62.58,27l11.83-5.9-3.2-8.91c-.74-1.54-1.74-1.45-1.74-1.45s-9.37,1.89-11.31,5.08C57.84,17.14,62.58,27,62.58,27Z"/><ellipse id="Ellipse_32" data-name="Ellipse 32" class="cls-4" cx="61.34" cy="19.24" rx="1.78" ry="3.25" transform="translate(-2.95 18.68) rotate(-16.92)"/><ellipse id="Ellipse_33" data-name="Ellipse 33" class="cls-3" cx="61.32" cy="19.16" rx="1.78" ry="3.25" transform="translate(-2.92 18.67) rotate(-16.92)"/><path id="Path_230" data-name="Path 230" class="cls-5" d="M60.39,16.93s.74-.1.65.94a7,7,0,0,0,0,1.52s-.59.58-.93-.63A1.91,1.91,0,0,1,60.39,16.93Z"/><ellipse id="Ellipse_34" data-name="Ellipse 34" class="cls-4" cx="70.12" cy="15.23" rx="1.67" ry="3.03" transform="matrix(0.96, -0.29, 0.29, 0.96, -1.4, 21.06)"/><ellipse id="Ellipse_35" data-name="Ellipse 35" class="cls-3" cx="70.09" cy="15.15" rx="1.67" ry="3.03" transform="translate(-1.37 21.05) rotate(-16.92)"/><path id="Path_231" data-name="Path 231" class="cls-5" d="M69.17,12.92s.73-.1.65.93a6.53,6.53,0,0,0,0,1.53s-.58.58-.92-.63A1.86,1.86,0,0,1,69.17,12.92Z"/><path id="Path_232" data-name="Path 232" class="cls-4" d="M62.5,16c.46,1.11,3.61,9.45,3.61,9.45L67,25l.5-.25.67-.33.08,0,2.62-1.3L67.6,14.24a1.19,1.19,0,0,0-1.47-.72l-.08,0-.6.25-.26.12-.78.36-.38.19-.6.35-.35.24C62.64,15.4,62.38,15.73,62.5,16Z"/><path id="Path_233" data-name="Path 233" class="cls-2" d="M66.13,13.53l3.63,10,.3-.12-3.6-9.91A1,1,0,0,0,66.13,13.53Z"/><path id="Path_234" data-name="Path 234" class="cls-2" d="M65.19,13.92,68.81,24l.48-.14L65.45,13.8Z"/><path id="Path_235" data-name="Path 235" class="cls-2" d="M64,14.48l3.93,10,.3-.1h0L64.41,14.28Z"/><path id="Path_236" data-name="Path 236" class="cls-2" d="M63.08,15.06,67,25h0l.52-.21,0-.05-4.08-9.95Z"/><path id="Path_237" data-name="Path 237" class="cls-4" d="M76.87,19.51s-.59-5.63-3-5.18-10,3.35-9.1,5.47,2.16,5.35,2.16,5.35l1.49-.85s-2.72-4.63-.91-5.38,6.23-2.67,6.23-2.67,1.17-.59,1.79,4Z"/><path id="Path_238" data-name="Path 238" class="cls-3" d="M77,20s-.69-6-3.12-5.52-10,3.36-9.1,5.47S67,25.31,67,25.31l1.49-.84s-2.72-4.63-.91-5.38,6.23-2.67,6.23-2.67,1.27-.25,1.89,4.35Z"/><path id="Path_239" data-name="Path 239" class="cls-2" d="M37.68,39.65,39.74,39a41.81,41.81,0,0,1,.72-12c.7-.7,9.9-3.44,9.9-3.44,1-.12,2.17,2.83,2.17,2.83s-.6.94.32,1.15a8,8,0,0,0,2.88-.69,22.73,22.73,0,0,0,4.36-2c1.62-1.11-.12-1.71-.12-1.71a5.85,5.85,0,0,1-1.08-2,7.94,7.94,0,0,0-2-2.74l-.19-.16a1,1,0,0,0-.39-.11c-2.67-.26-14,4.22-14,4.22l-3.89,2.68a2.1,2.1,0,0,0-.27,1C37.71,29.25,37.68,39.65,37.68,39.65Z"/><path id="Path_240" data-name="Path 240" class="cls-4" d="M37.68,39.65,39.74,39a41.81,41.81,0,0,1,.72-12c.7-.7,9.9-3.44,9.9-3.44,1-.12,2.17,2.83,2.17,2.83s-.6.94.32,1.15a8,8,0,0,0,2.88-.69,22.73,22.73,0,0,0,4.36-2c1.62-1.11-.12-1.71-.12-1.71a5.85,5.85,0,0,1-1.08-2,7.94,7.94,0,0,0-2-2.74l-.19-.16a1,1,0,0,0-.39-.11c-2.67-.26-14,4.22-14,4.22l-3.89,2.68a2.1,2.1,0,0,0-.27,1C37.71,29.25,37.68,39.65,37.68,39.65Z"/><path id="Path_241" data-name="Path 241" class="cls-2" d="M38.19,25.92c3.5-2.76,14.71-5.27,14.71-5.27.87-1.35,3-2.08,4-2.36l-.19-.16a1,1,0,0,0-.39-.11c-2.67-.26-14,4.22-14,4.22l-3.89,2.68A2.1,2.1,0,0,0,38.19,25.92Z"/><path id="Path_242" data-name="Path 242" class="cls-2" d="M52.39,21.26c.51.79,2.6,3.95,2.6,3.95a15.62,15.62,0,0,1,.74,1.61,22.73,22.73,0,0,0,4.36-2c1.62-1.1-.12-1.7-.12-1.7A5.84,5.84,0,0,1,58.88,21a7.73,7.73,0,0,0-2.13-2.9,1,1,0,0,0-.38-.1C54.92,18.87,52,20.67,52.39,21.26Z"/><path id="Path_243" data-name="Path 243" class="cls-7" d="M52.39,21.26c.51.79,2.6,3.95,2.6,3.95a15.62,15.62,0,0,1,.74,1.61,22.73,22.73,0,0,0,4.36-2c1.62-1.1-.12-1.7-.12-1.7A5.84,5.84,0,0,1,58.88,21a7.73,7.73,0,0,0-2.13-2.9,1,1,0,0,0-.38-.1C54.92,18.87,52,20.67,52.39,21.26Z"/><path id="Path_244" data-name="Path 244" class="cls-2" d="M20.71,6.05,31.27,21.18l20.3-10L45.47,2S44.29-.16,43.13,0C43.13,0,25,2.25,20.71,6.05Zm3.22,1.86c-1.42-2,9.07-4.2,9.07-4.2a25,25,0,0,1,4.59-1.28c.58-.12,1.15-.21,1.68-.3,1.19-.19,2.21-.31,2.83-.38l.62-.06c2.23,0,5.94,8.05,5.94,8.05.43.83-.68,1-.68,1l-.06,0-1,.33-2.8,1L30.48,16.78c-.84.17-1.26-.76-1.26-.76C28.57,15.46,23.93,7.91,23.93,7.91Z"/><path id="Path_245" data-name="Path 245" class="cls-2" d="M47.92,10.73l.07,0s1.1-.13.67-1c0,0-3.71-8-5.94-8.06l-.62.06C43.28,3,47.16,7.19,47.92,10.73Z"/><path id="Path_246" data-name="Path 246" class="cls-4" d="M47.92,10.73l.07,0s1.1-.13.67-1c0,0-3.71-8-5.94-8.06l-.62.06C43.28,3,47.16,7.19,47.92,10.73Z"/><path id="Path_247" data-name="Path 247" class="cls-4" d="M52.33,32a1.44,1.44,0,0,0,1.49.33l.42-.15,4-1.4,1.43-.51L61,29.75l16.86-8.27-.67-1.71-2,.92-.8.37-12,5.6-1.58.74-.76.36-3.39,1L53,29.85a1.51,1.51,0,0,0-.5.27A1.38,1.38,0,0,0,52,31,1.17,1.17,0,0,0,52.33,32Z"/><path id="Path_248" data-name="Path 248" class="cls-3" d="M52.39,32.17a1.39,1.39,0,0,0,1.48.32l5.83-2.05L61,29.92,79,21.1l1.41-.69.77-.38A1.54,1.54,0,0,0,81.83,18l-.13-.2c-.33-.69-3.27-.52-4.16-.22-.6.2-.4,1.15-.2,1.76a4.14,4.14,0,0,0,.19.5l-.85.4L60.13,27.93,53.06,30a1.42,1.42,0,0,0-1,1.16A1.15,1.15,0,0,0,52.39,32.17Z"/><path id="Path_249" data-name="Path 249" class="cls-4" d="M79.13,18.14a3.34,3.34,0,0,1-1.6,1.65A2.22,2.22,0,0,1,79.13,18.14Z"/><path id="Path_250" data-name="Path 250" class="cls-4" d="M80.12,20.69s2.47-.82,2.88.53-1.09,2-1.09,2L61,34.3l-6.29,2s-2.74-1.09-.69-2.57L60.42,32l20-10.33S79.66,21.07,80.12,20.69Z"/><path id="Path_251" data-name="Path 251" class="cls-3" d="M54.73,36.51l6.29-2,18.62-9.82L81,23.93l1-.5s1.5-.7,1.09-2.05c-.29-1-1.65-.81-2.39-.65-.29.06-.49.12-.49.12-.47.39.32,1,.32,1l-.73.38-19.29,10L54,33.94C52,35.42,54.73,36.51,54.73,36.51Z"/><path id="Path_252" data-name="Path 252" class="cls-3" d="M77.91,20.16,76.42,20l-.68.17,1.78,5.64,1.94-1.05.69-.83-.29-2.48a6.47,6.47,0,0,0-.58-1C79.17,20.39,77.91,20.16,77.91,20.16Z"/><path id="Path_253" data-name="Path 253" class="cls-4" d="M77.91,20.16,76.42,20l-.68.17,1.78,5.64,1.94-1.05.69-.83-.29-2.48a6.47,6.47,0,0,0-.58-1C79.17,20.39,77.91,20.16,77.91,20.16Z"/><path id="Path_254" data-name="Path 254" class="cls-4" d="M79.64,24.65v0L81,24v0a3.69,3.69,0,0,0-.34-3.2c-.29.06-.49.12-.49.12-.47.39.33,1,.33,1l-.74.38A3.68,3.68,0,0,1,79.64,24.65Z"/><path id="Path_255" data-name="Path 255" class="cls-4" d="M75.91,20.1c.27,0,.53,0,.77.09A4.62,4.62,0,0,1,79,21.1l1.41-.7a4.75,4.75,0,0,0-2.77-1.28l-.29.17Z"/><path id="Path_256" data-name="Path 256" class="cls-3" d="M77.46,19.17S82,19.55,80.83,24l-1.37.72s1.88-4.18-3.72-4.59Z"/><path id="Path_257" data-name="Path 257" class="cls-3" d="M68.28,24l-1.53.41,2.1,6,2.3-1.19.88-.82L72.14,27l0-1.3L71,24.85l-1.11-.34Z"/><path id="Path_258" data-name="Path 258" class="cls-4" d="M68.28,24l-1.53.41,2.1,6,2.3-1.19.88-.82L72.14,27l0-1.3L71,24.85l-1.11-.34Z"/><ellipse id="Ellipse_36" data-name="Ellipse 36" class="cls-3" cx="69.4" cy="27.03" rx="0.76" ry="1.29" transform="translate(-4.86 21.36) rotate(-16.92)"/><path id="Path_259" data-name="Path 259" class="cls-6" d="M76.84,26.59a.42.42,0,0,1,.38.45s0,0,0,0a2.85,2.85,0,0,0-.09.92c.08.17-.36.15-.43.12s-.78.24-1-.24a.88.88,0,0,1,.16-.88l-.5-1,1-.38.29,1Z"/><path id="Path_260" data-name="Path 260" class="cls-4" d="M76.84,26.59a.42.42,0,0,1,.38.45s0,0,0,0a2.85,2.85,0,0,0-.09.92c.08.17-.36.15-.43.12s-.78.24-1-.24a.88.88,0,0,1,.16-.88l-.5-1,1-.38.29,1Z"/><path id="Path_261" data-name="Path 261" class="cls-4" d="M76.56,26.66s0,1.25.18,1.25S76.56,26.66,76.56,26.66Z"/><path id="Path_262" data-name="Path 262" class="cls-4" d="M76.1,26.5s0,1.26.18,1.25S76.1,26.5,76.1,26.5Z"/><path id="Path_263" data-name="Path 263" class="cls-6" d="M71,24.25l1.62,3.3s.66-.31,1-.51a.66.66,0,0,0,.22-.15.17.17,0,0,1,.12,0h0c.19,0,.57,0,.6-.12a0,0,0,0,1,0,0h0c0-.09.18-.08.31-.1a.27.27,0,0,0,.19-.08c.08-.1.32-.06.5-.07s.21,0,.22-.15a.23.23,0,0,1,.13-.17h0c.15-.09.38-.13.51-.2s.08-.06.07-.1.14-.16.28-.24.37-.18.36-.26a.07.07,0,0,1,0-.05,1.3,1.3,0,0,1,.34,0h0c.09,0,.16,0,.16-.09s.1-.1.22-.11h.28c.09,0,.13,0,.13-.05s.43,0,.45-.23a3.12,3.12,0,0,0-1.36-3.56,6.71,6.71,0,0,0-.68.29,2.11,2.11,0,0,0-.27.18h0a2,2,0,0,1-.52.23.61.61,0,0,0-.28.16.24.24,0,0,0-.06.11c0,.12-.12.18-.24.21s-.35,0-.41.08h0c-.1.08-.56.17-.61.26h0c0,.06-.21.06-.39.09h0a.42.42,0,0,0-.33.16.38.38,0,0,1-.25.16,1.48,1.48,0,0,0-.35.13.12.12,0,0,0-.06.06c0,.11-.22.15-.37.21a.37.37,0,0,0-.2.12l-.07.06a2.33,2.33,0,0,1-.69.17Z"/><path id="Path_264" data-name="Path 264" class="cls-4" d="M77.94,25.07h.29a2.89,2.89,0,0,0-1.47-3.55,1.27,1.27,0,0,0-.27.18A3.5,3.5,0,0,1,77.94,25.07Z"/><path id="Path_265" data-name="Path 265" class="cls-4" d="M77.23,25.28a1.82,1.82,0,0,1,.33,0h0A2.9,2.9,0,0,0,76,21.92a.77.77,0,0,0-.27.17A3.41,3.41,0,0,1,77.23,25.28Z"/><path id="Path_266" data-name="Path 266" class="cls-4" d="M76.47,25.93a.12.12,0,0,0,.08-.09c0-.08.14-.17.28-.24a2.84,2.84,0,0,0-1.43-3.19c-.17,0-.36,0-.42.08h0A3.52,3.52,0,0,1,76.47,25.93Z"/><path id="Path_267" data-name="Path 267" class="cls-4" d="M75.62,26.45c.11,0,.2,0,.22-.15a.21.21,0,0,1,.13-.17h0a2.91,2.91,0,0,0-1.6-3.37h0c0,.06-.21.06-.39.09A3.55,3.55,0,0,1,75.62,26.45Z"/><path id="Path_268" data-name="Path 268" class="cls-4" d="M74.6,26.7c.05-.09.19-.08.32-.1a2.89,2.89,0,0,0-1.52-3.42,1.48,1.48,0,0,0-.35.13A3.48,3.48,0,0,1,74.6,26.7Z"/><path id="Path_269" data-name="Path 269" class="cls-4" d="M73.66,27a1.07,1.07,0,0,0,.22-.15s.05,0,.11,0h0a2.83,2.83,0,0,0-1.37-3.28.37.37,0,0,0-.2.12l-.07.06A3.59,3.59,0,0,1,73.66,27Z"/><ellipse id="Ellipse_37" data-name="Ellipse 37" class="cls-6" cx="47.31" cy="37.85" rx="4.77" ry="7.02" transform="translate(-8.97 15.41) rotate(-16.92)"/><ellipse id="Ellipse_38" data-name="Ellipse 38" class="cls-4" cx="47.5" cy="37.9" rx="3.47" ry="5.69" transform="matrix(0.96, -0.29, 0.29, 0.96, -8.97, 15.46)"/><ellipse id="Ellipse_39" data-name="Ellipse 39" class="cls-5" cx="47.45" cy="37.73" rx="3.47" ry="5.69" transform="translate(-8.93 15.44) rotate(-16.92)"/><ellipse id="Ellipse_40" data-name="Ellipse 40" class="cls-6" cx="45.73" cy="34.26" rx="0.41" ry="0.7" transform="translate(-7.99 14.79) rotate(-16.92)"/><ellipse id="Ellipse_41" data-name="Ellipse 41" class="cls-6" cx="45.95" cy="40.61" rx="0.41" ry="0.7" transform="translate(-9.83 15.13) rotate(-16.92)"/><ellipse id="Ellipse_42" data-name="Ellipse 42" class="cls-6" cx="49.33" cy="36.53" rx="0.41" ry="0.7" transform="translate(-8.5 15.94) rotate(-16.92)"/><ellipse id="Ellipse_43" data-name="Ellipse 43" class="cls-6" cx="49.37" cy="40.8" rx="0.41" ry="0.7" transform="translate(-9.74 16.13) rotate(-16.92)"/><path id="Path_270" data-name="Path 270" class="cls-2" d="M10.16,35.58S9.54,45.3,9.87,45.8c0,0-1.13,1.26-1.53,1.15s-1.28-4.06-1.28-4.06l-.4-3.59.1-2.23Z"/><path id="Path_271" data-name="Path 271" class="cls-9" d="M10.16,35.58S9.54,45.3,9.87,45.8c0,0-1.13,1.26-1.53,1.15s-1.28-4.06-1.28-4.06l-.4-3.59.1-2.23Z"/><ellipse id="Ellipse_44" data-name="Ellipse 44" class="cls-6" cx="44.29" cy="37.15" rx="0.41" ry="0.7" transform="translate(-8.89 14.5) rotate(-16.92)"/><ellipse id="Ellipse_45" data-name="Ellipse 45" class="cls-6" cx="46.91" cy="38.12" rx="1.2" ry="1.67" transform="translate(-9.06 15.3) rotate(-16.92)"/><path id="Path_272" data-name="Path 272" class="cls-6" d="M10.05,48.36c1.54,5,4.62,9.14,9.12,7.22,5.84-1.92,5.09-6,3.55-11.08s-5.51-8-9-6.89S8.51,43.3,10.05,48.36Z"/><path id="Path_273" data-name="Path 273" class="cls-4" d="M10,48.38c-1.19-3.92-.44-7.57,1.58-9.52,3.25-.35,6.69,2.47,8.09,7.08,1.26,4.14,2,7.65-1,9.83C14.43,57.24,11.5,53.26,10,48.38Z"/><path id="Path_274" data-name="Path 274" class="cls-4" d="M6.93,47s1.05.46,1.36-.19c0,0-1.62-9.41-.21-9.88L13,35.36a1.89,1.89,0,0,1,1.25,1.09l5.92,8.07,17.48-5,.48-3.19L23.73,40.71h0c-.16-.25-5.18-8.11-7.12-8.69h0a.76.76,0,0,0-.21,0s-6.25,1-8,2.17c0,0-1.92,1.09-2.23,1.88h0c0,.09-.56,1.2,0,3.81Z"/><path id="Path_275" data-name="Path 275" class="cls-2" d="M7,47.14s1,.45,1.36-.19c0,0-1.62-9.41-.21-9.89L13,35.53a1.89,1.89,0,0,1,1.25,1.09l5.92,8.07,17.48-5,.49-3.19L23.78,40.88h0c-.16-.25-5.18-8.11-7.12-8.69h0a.76.76,0,0,0-.21,0s-6.24,1-8,2.17c0,0-1.92,1.09-2.23,1.87h0c0,.09-.55,1.2,0,3.81Z"/><path id="Path_276" data-name="Path 276" class="cls-4" d="M7,47.14s1,.45,1.36-.19c0,0-1.62-9.41-.21-9.89L13,35.53a1.89,1.89,0,0,1,1.25,1.09l5.92,8.07,17.48-5,.49-3.19L23.78,40.88h0c-.16-.25-5.18-8.11-7.12-8.69h0a.76.76,0,0,0-.21,0s-6.24,1-8,2.17c0,0-1.92,1.09-2.23,1.87h0c0,.09-.55,1.2,0,3.81Z"/><path id="Path_277" data-name="Path 277" class="cls-2" d="M14.63,34c.66.67,7.25,9.39,7.25,9.39l1.9-2.5h0c-.16-.25-5.19-8.12-7.13-8.69C15.66,32.68,14.18,33.53,14.63,34Z"/><path id="Path_278" data-name="Path 278" class="cls-2" d="M18,28.07l3.94,5.86,10.19-3.42.21,1s-7.7,3.62-11.63,3.07L17,29.24l-16.2,5L3.7,32.59Z"/><path id="Path_279" data-name="Path 279" class="cls-7" d="M18,28.07l3.94,5.86,10.19-3.42.21,1s-7.7,3.62-11.63,3.07L17,29.24l-16.2,5L3.7,32.59Z"/><path id="Path_280" data-name="Path 280" class="cls-4" d="M69.27,23.59s6.35,1.09,3.06,4.94l-1,.58s3.12-4.1-4.4-4.81Z"/><path id="Path_281" data-name="Path 281" class="cls-3" d="M69.1,23.64s6.35,1.09,3.06,4.94l-1,.58s3.12-4.09-4.4-4.8Z"/><ellipse id="Ellipse_46" data-name="Ellipse 46" class="cls-6" cx="14.17" cy="47.88" rx="3.2" ry="5.48" transform="translate(-13.32 6.2) rotate(-16.92)"/><ellipse id="Ellipse_47" data-name="Ellipse 47" class="cls-4" cx="14.31" cy="47.96" rx="2.33" ry="4.44" transform="translate(-13.34 6.24) rotate(-16.92)"/><ellipse id="Ellipse_48" data-name="Ellipse 48" class="cls-5" cx="14.26" cy="47.8" rx="2.33" ry="4.44" transform="translate(-13.29 6.22) rotate(-16.92)"/><ellipse id="Ellipse_49" data-name="Ellipse 49" class="cls-6" cx="12.99" cy="45.07" rx="0.27" ry="0.55" transform="translate(-12.55 5.73) rotate(-16.92)"/><ellipse id="Ellipse_50" data-name="Ellipse 50" class="cls-6" cx="13.33" cy="49.98" rx="0.27" ry="0.55" transform="translate(-13.97 6.04) rotate(-16.92)"/><ellipse id="Ellipse_51" data-name="Ellipse 51" class="cls-6" cx="15.51" cy="46.93" rx="0.27" ry="0.55" transform="translate(-12.98 6.54) rotate(-16.92)"/><ellipse id="Ellipse_52" data-name="Ellipse 52" class="cls-6" cx="15.67" cy="50.22" rx="0.27" ry="0.55" transform="translate(-13.94 6.73) rotate(-16.92)"/><ellipse id="Ellipse_53" data-name="Ellipse 53" class="cls-6" cx="12.09" cy="47.25" rx="0.27" ry="0.55" transform="translate(-13.23 5.56) rotate(-16.92)"/><ellipse id="Ellipse_54" data-name="Ellipse 54" class="cls-6" cx="13.91" cy="48.08" rx="0.81" ry="1.3" transform="translate(-13.39 6.13) rotate(-16.92)"/><path id="Path_282" data-name="Path 282" class="cls-4" d="M51.56,11A107.8,107.8,0,0,0,31.27,21.18Z"/><path id="Path_283" data-name="Path 283" class="cls-3" d="M2.15,8.22s.53-.07.47.68a4.49,4.49,0,0,0,0,1.1s-.43.42-.68-.45A1.38,1.38,0,0,1,2.15,8.22Z"/><path id="Path_285" data-name="Path 285" class="cls-6" d="M29,27.85,28.9,27a2.47,2.47,0,0,1-1.37-.19l.12-.6a2.75,2.75,0,0,0,1.39.18.92.92,0,0,0,.9-.93v-.07c-.07-.47-.44-.72-1.12-.88-.93-.22-1.43-.55-1.54-1.3a1.39,1.39,0,0,1,1-1.57l-.12-.87.43-.07.12.84a2.44,2.44,0,0,1,1.17.14l-.14.6a1.87,1.87,0,0,0-1.07-.14c-.67.09-.76.51-.71.86s.31.64,1.11.84,1.55.6,1.67,1.37a1.53,1.53,0,0,1-1.16,1.66l.13.89Z"/></g></g></g></svg>