<svg xmlns="http://www.w3.org/2000/svg" viewBox="0 0 94.51 94.51" class="position-relative overflow-hidden avtar" style="width: 3rem">
  <defs>
    <style>.avtar-cls-1{fill:#f5c636;}.avtar-cls-2{isolation:isolate;opacity:0.2;}.avtar-cls-3{fill:#2f2e41;}.avtar-cls-4{fill:#d0cde1;}</style>
  </defs>
  <g class="avtar-bg">
    <path id="Path_343" data-name="Path 343" class="avtar-cls-1" d="M94.4,50.5a47,47,0,0,1-4.63,17.43l0,0h0a47.12,47.12,0,0,1-6.69,10.14c-.52.59-1,1.17-1.58,1.74l-.6.62q-1.55,1.56-3.24,3l-.79.64-.19.15a44.79,44.79,0,0,1-4.07,2.9c-.94.61-1.91,1.18-2.9,1.71L69,89.2l-1.15.57c-.51.25-1,.49-1.53.71l-.63.28-.93.38-.16.06c-.2.09-.4.16-.61.24a46.63,46.63,0,0,1-8.2,2.29h0l-.55.1-.42.07h-.05c-.29,0-.57.09-.86.12l-.48.07-.3,0-.36,0-.2,0-.47,0-.79.07-.57,0-.68.05h-.43l-.48,0h-2.6l-1.25,0-.63,0h0l-.63,0a46.45,46.45,0,0,1-6.31-.86c-1.52-.31-3-.7-4.49-1.15l-.17-.06-.44-.14-.4-.12a47.47,47.47,0,0,1-9.58-4.47l-.05,0-.26-.16L21.77,87c-1.07-.68-2.11-1.41-3.11-2.18l-.77-.59-.24-.19-.25-.21c-.22-.17-.43-.36-.65-.54-.89-.76-1.76-1.55-2.59-2.37a47.57,47.57,0,0,1-7.62-9.74c-.73-1.25-1.41-2.53-2-3.84A47.25,47.25,0,1,1,94.4,50.5Z" />
  </g>
  <path id="Path_346" data-name="Path 346" class="avtar-cls-2" d="M64,32.79a18.6,18.6,0,0,1-1.73,9.49,17,17,0,0,1-2-18.4A18.68,18.68,0,0,1,64,32.79Z" />
  <path id="Path_349" data-name="Path 349" class="avtar-cls-3" d="M59.59,75.89l.16.1C59.72,76.17,59.67,76.28,59.59,75.89Z" />
  <path id="Path_350" data-name="Path 350" class="avtar-cls-3" d="M59.81,76a.06.06,0,0,0,0,.06l-.06,0a.13.13,0,0,1,0-.06C59.79,75.69,59.79,75.4,59.81,76Z" />
  <circle id="Ellipse_1576" data-name="Ellipse 1576" class="avtar-cls-3" cx="43.73" cy="45.14" r="22.95" />
  <circle id="Ellipse_1577" data-name="Ellipse 1577" class="avtar-cls-4" cx="45.05" cy="53.37" r="13.9" />
  <path id="Path_351" data-name="Path 351" class="avtar-cls-4" d="M74.89,82.13h0l-3.28.55-6.83,1.15-.93.16L53.46,85.74l-.88.15L27.39,90.14a47.09,47.09,0,0,1-4.75-2.55l-.05,0-.26-.16-.57-.35c-1.06-.69-2.1-1.41-3.1-2.18-.26-.2-.52-.39-.77-.6l-.24-.19-.25-.2-.65-.55c2.71-4.21,8.64-6.72,14.48-7.92,4.4-.9,5.63-4.79,5.79-8.31a21.54,21.54,0,0,0,0-2.41,24.12,24.12,0,0,0-.57-3.78l13.83,1.41,1.21,3.39a8.07,8.07,0,0,0-.12,1.09,6.63,6.63,0,0,0,3.46,5.85c.26.16.52.32.79.46a21.86,21.86,0,0,0,7.24,2.15,14.38,14.38,0,0,1,3.64.31l.84.22a12.4,12.4,0,0,1,4.34,2.32A12.93,12.93,0,0,1,73,79.41,11.58,11.58,0,0,1,74.89,82.13Z" />
  <path id="Path_352" data-name="Path 352" class="avtar-cls-4" d="M76.85,84.1l-.19.15a44.79,44.79,0,0,1-4.07,2.9c-1,.6-1.91,1.17-2.9,1.7L69,89.2l-1.16.58c-.5.25-1,.48-1.53.71l-.62.27-.93.38-.16.06-.55-.53,7.51-8,1.51-1.6a3.81,3.81,0,0,1,1.77,1A17.37,17.37,0,0,1,76.76,84,.87.87,0,0,0,76.85,84.1Z" />
  <path id="Path_353" data-name="Path 353" class="avtar-cls-3" d="M76.76,84a2.6,2.6,0,0,1-.1.25,44.79,44.79,0,0,1-4.07,2.9,16.77,16.77,0,0,1-3.66.61s.07.53.11,1.44l-1.16.58c-.5.25-1,.48-1.53.71l-.62.27-.93.38-.16.06c-.2.09-.4.16-.61.24a46.66,46.66,0,0,1-8.2,2.3h0l-.55.1-.42.07h-.05l-.86.13-.48.07-.3,0-.36,0-.2,0-.47,0-.79.07-.57,0-.68,0h-.43l-.48,0h-.25l-.48,0H46.54c-.42,0-.83,0-1.25,0l-.63,0h0l-.63,0a46.23,46.23,0,0,1-6.31-.86,45.43,45.43,0,0,1-4.49-1.15l-.17,0-.45-.14-.39-.13a46.41,46.41,0,0,1-9.58-4.47l-.05,0-.26-.16c7.78-1.25,20.07-3.24,30.73-4.92l.89-.14c3.94-.63,7.63-1.21,10.75-1.69l1-.14C69,80,71.6,79.6,73,79.42a11.21,11.21,0,0,1,1.15-.12L76.76,84Z" />
  <circle id="Ellipse_1578" data-name="Ellipse 1578" class="avtar-cls-3" cx="23.91" cy="27.14" r="6.84" />
  <circle id="Ellipse_1579" data-name="Ellipse 1579" class="avtar-cls-3" cx="65.95" cy="28.07" r="6.84" />
  <path id="Path_354" data-name="Path 354" class="avtar-cls-3" d="M58.84,24.64a6.83,6.83,0,0,1,6.55-6.36A6.84,6.84,0,0,0,63,31.74a7.22,7.22,0,0,0,1.47.1A6.84,6.84,0,0,1,58.84,24.64Z" />
  <path id="Path_355" data-name="Path 355" class="avtar-cls-3" d="M15.91,32.13A6.83,6.83,0,0,1,16.14,23a6.84,6.84,0,1,0,7.7,11.3,6.45,6.45,0,0,0,1.12-1A6.83,6.83,0,0,1,15.91,32.13Z" />
  <path id="Path_356" data-name="Path 356" class="avtar-cls-3" d="M44.46,34.43c-8.07-.56-14.88,2.81-15.2,7.52-.15,2.1,1,4.12,3.11,5.76l3-1.85-1,3.14c.31.17.62.34.95.49l4.54-4.61-.41,6a24.1,24.1,0,0,0,3.87.58C51.37,52,58.17,48.66,58.5,44S52.53,35,44.46,34.43Z" />
  <path id="Path_357" data-name="Path 357" class="avtar-cls-3" d="M59.13,27.6s-1.4,4.8,5.09,7.2Z" />
  <path id="Path_358" data-name="Path 358" class="avtar-cls-3" d="M30.32,26.51s2.06,5.62-5.41,7.55Z" />
  <ellipse id="Ellipse_1580" data-name="Ellipse 1580" class="avtar-cls-4" cx="31.23" cy="55.21" rx="1.16" ry="2.78" transform="translate(-10.55 7.49) rotate(-11.71)" />
  <ellipse id="Ellipse_1581" data-name="Ellipse 1581" class="avtar-cls-4" cx="59.12" cy="54.8" rx="2.78" ry="1.16" transform="translate(-2.89 106.32) rotate(-82.55)" />
</svg>