<svg xmlns="http://www.w3.org/2000/svg" viewBox="0 0 79.28 62.63">
  <defs>
    <style>.cls-1{fill:#231f20;}.cls-2{fill:#f70642;}</style>
  </defs>
  <path id="Path_1" class="cls-1" d="M44.5,34.94l0-.06,2.64-3.57-5.57-7.53-.06-.07L24,0H0L35.16,47.57Z" />
  <path id="Path_2" class="cls-2" d="M.88,61.45,0,62.63H24L33,50.52c.05-.1.05-.07.13-.15l.66-.91-12-16.26L18,38.33l-.09.11L.94,61.38A.13.13,0,0,0,.88,61.45Z" />
  <path id="Path_3" class="cls-2" d="M73.68,23.73l-.08-.12L56.14,0h-24L67.26,47.57,76.6,34.94l0,0,2.64-3.58Z" />
  <path id="Path_4" class="cls-1" d="M65.88,49.45l-12-16.26-3.78,5.13-.07.1-17,23-.06.07-.87,1.18h24l8.93-12.08a1.46,1.46,0,0,1,.16-.19Z" />
</svg>