<svg xmlns="http://www.w3.org/2000/svg" viewBox="0 0 94.9 94.9">
  <defs>
    <style>.cls-1{isolation:isolate;opacity:0.2;}.cls-2{fill:#ebebea;}.cls-3{fill:#2f2e41;}</style>
  </defs>
  <path id="Path_332" data-name="Path 332" fill="#F5C32C" d="M94.79,50.7A47.24,47.24,0,0,1,89.7,69.08l-.18.35A47.53,47.53,0,0,1,36,93.51l-.84-.22a47.41,47.41,0,0,1-8.38-3.11l-1.3-.65-.88-.47A47.45,47.45,0,1,1,94.79,50.7Z" />
  <path id="Path_335" data-name="Path 335" class="cls-1" d="M32.11,32.82a18.71,18.71,0,0,0,.42,9.68,17.1,17.1,0,0,0,4.49-18A18.72,18.72,0,0,0,32.11,32.82Z" />
  <circle id="Ellipse_1573" data-name="Ellipse 1573" class="cls-2" cx="47.92" cy="39.47" r="18.5" />
  <path id="Path_338" data-name="Path 338" class="cls-2" d="M39.74,53.11s1.55,11.11,1.47,12.26,10.52,7.1,10.52,7.1l9.92-1.06,4.17-10.13s-5.17-9.05-4.93-12.51Z" />
  <path id="Path_339" data-name="Path 339" class="cls-3" d="M89.7,69.08l-.18.35A47.53,47.53,0,0,1,36,93.51l-.84-.22a47.41,47.41,0,0,1-8.38-3.11l-1.3-.65-.88-.47A47.48,47.48,0,0,1,17.21,84l-3.7-3.39,2-3.1,1.29-.85,2.67-1.76L22.25,73l.74-.49,11.14-7.35.82-.54,5.79-3.83h0S46,70.92,54.88,68.63A12,12,0,0,0,64.1,58.06Z" />
  <path id="Path_340" data-name="Path 340" class="cls-3" d="M32.93,23.51s6.73-12.29,17.76-8.59,17.08,8.53,17.26,13a62.06,62.06,0,0,1-1,11s-.6-9.11-8.54-7.7-20-.89-20-.89L35.2,47.7s-2-3.33-4.56-1.54S24.85,26.88,32.93,23.51Z" />
  <path id="Path_342" data-name="Path 342" class="cls-3" d="M82.19,67.61l7.33,1.82a47.62,47.62,0,0,1-8.8,11.86Z" />
</svg>