<svg xmlns="http://www.w3.org/2000/svg" viewBox="0 0 104.83 80.98"><defs><style>.cls-1{opacity:0.96;}.cls-2{fill:none;}.cls-3{fill:#65617d;}.cls-4{fill:#dce0ed;}.cls-5{fill:#6c63ff;}.cls-6,.cls-7{isolation:isolate;opacity:0.1;}.cls-7{fill:#fff;}</style></defs><g id="Layer_2" data-name="Layer 2"><g id="Layer_1-2" data-name="Layer 1"><g id="scooty" class="cls-1"><path id="Path_305" data-name="Path 305" class="cls-2" d="M84.73,20.53c.2,2.08,0,3.25-1.22,2.13C80,19.28,57.78,10.86,57.78,10.86l1.56-2A66.07,66.07,0,0,1,84.73,20.53Z"/><path id="Path_306" data-name="Path 306" class="cls-3" d="M100.78,18.66A12.23,12.23,0,0,1,85.22,37.51c-.16-.12-.32-.24-.47-.37h0l-.33-.29a12.23,12.23,0,0,1,16.37-18.18Z"/><circle id="Ellipse_62" data-name="Ellipse 62" class="cls-4" cx="92.59" cy="27.75" r="6.67"/><circle id="Ellipse_63" data-name="Ellipse 63" class="cls-3" cx="92.59" cy="27.75" r="4"/><path id="Path_307" data-name="Path 307" class="cls-3" d="M53.84,36.08,34.57,58.37l-3.23-2.91c-2.42-2.54-.94-6,1-8.71a20.32,20.32,0,0,1,5.51-5.27,52.42,52.42,0,0,0,9.65-7.72,1.87,1.87,0,0,1,2.34-.33l1.35.85,1,.68C53.12,35.58,53.84,36.08,53.84,36.08Z"/><path id="Path_308" data-name="Path 308" class="cls-5" d="M87.41,34.69,46.47,80.16a2.42,2.42,0,0,1-2.57.7,1.67,1.67,0,0,1-1.06-2.12h0A6.89,6.89,0,0,0,42.11,74,36.28,36.28,0,0,0,36,66.41C32.52,63,31.91,60,32.32,57.84h0a7.72,7.72,0,0,1,2.75-4.47l16.75-18.3a4.93,4.93,0,0,1,1.4-.38c3-.26,2.85,3.93,2.85,3.93a11.64,11.64,0,0,0,9.82,11.11l8.5-9.44A11.65,11.65,0,0,0,77.32,34a6.6,6.6,0,0,0-.48-4c-.26-.5-.52-1-.75-1.52C73,21.17,61.54,16.3,57.11,14.64,56,14.23,55.34,14,55.34,14l2.45-3.16,1.53-2,0,0a66,66,0,0,1,25.39,11.7c.55.41,1.08.81,1.59,1.21a8.91,8.91,0,0,1,1.47,12.5c-.12.15-.25.3-.38.44Z"/><path id="Path_309" data-name="Path 309" class="cls-6" d="M52.19,35,32.66,56.65l-.9-.81,19.4-21.56Z"/><path id="Path_310" data-name="Path 310" class="cls-6" d="M53.22,34.7l-20.71,23a.67.67,0,0,1-.19.14,7.77,7.77,0,0,1,2.75-4.47l16.75-18.3a4.93,4.93,0,0,1,1.4-.38Z"/><path id="Rectangle_67" data-name="Rectangle 67" class="cls-4" d="M24.15,64.73,52.27,33.49a.6.6,0,0,1,.86,0h0a.61.61,0,0,1,0,.86L25.05,65.55a.62.62,0,0,1-.86,0h0A.6.6,0,0,1,24.15,64.73Z"/><path id="Path_311" data-name="Path 311" class="cls-6" d="M84.73,20.53c.2,2.08,0,3.25-1.22,2.13C80,19.28,57.78,10.86,57.78,10.86l1.56-2A66.07,66.07,0,0,1,84.73,20.53Z"/><path id="Path_312" data-name="Path 312" class="cls-6" d="M99.74,17.82c-.72,1.32-1.67,2.9-2.91,4.77-.47.7-1,1.43-1.52,2.21-1.32,1.87-2.91,4-4.81,6.36-.53.68-1.1,1.37-1.69,2.09-1.1,1.34-2.29,2.76-3.59,4.26l-.47-.37h0c1-2.8,1.72-8-3.57-13.74A12.23,12.23,0,0,1,97,16.33,12,12,0,0,1,99.74,17.82Z"/><path id="Path_313" data-name="Path 313" class="cls-5" d="M83.46,39.08S91.73,27.63,72.59,16.9c0,0,9.37-.9,14.89-1.74s14.28-3.3,14.28-3.3S101.88,18.15,83.46,39.08Z"/><path id="Path_314" data-name="Path 314" class="cls-7" d="M83.46,39.08S91.73,27.63,72.59,16.9c0,0,9.37-.9,14.89-1.74s14.28-3.3,14.28-3.3S101.88,18.15,83.46,39.08Z"/><circle id="Ellipse_64" data-name="Ellipse 64" class="cls-3" cx="57.77" cy="66.43" r="12.23"/><circle id="Ellipse_65" data-name="Ellipse 65" class="cls-4" cx="57.77" cy="66.43" r="6.67"/><circle id="Ellipse_66" data-name="Ellipse 66" class="cls-3" cx="57.77" cy="66.43" r="4"/><path id="Path_315" data-name="Path 315" class="cls-6" d="M64.22,53.77A14,14,0,1,0,45.47,74.6c.24.22.5.43.76.64l18.7-20.78C64.7,54.23,64.47,54,64.22,53.77Z"/><path id="Path_316" data-name="Path 316" class="cls-5" d="M63.69,54a13.5,13.5,0,1,0-18.06,20c.24.22.49.42.74.62l18-20Q64.05,54.32,63.69,54Z"/><path id="Path_317" data-name="Path 317" class="cls-7" d="M63.69,54c.16.14.32.3.48.45l.21.21-18,20-.24-.19-.5-.43A13.5,13.5,0,1,1,63.69,54Z"/><path id="Path_318" data-name="Path 318" class="cls-6" d="M64.17,54.45l.21.21-18,20-.24-.19Z"/><ellipse id="Ellipse_67" data-name="Ellipse 67" class="cls-6" cx="69.25" cy="12.32" rx="1.78" ry="4.47" transform="translate(36.5 74.57) rotate(-72.33)"/><ellipse id="Ellipse_68" data-name="Ellipse 68" class="cls-4" cx="69.24" cy="12.11" rx="1.78" ry="4.47" transform="translate(36.69 74.41) rotate(-72.33)"/><path id="Path_320" data-name="Path 320" class="cls-5" d="M60.83,10.22l-3,3.36a6.92,6.92,0,0,1-9.74.9l-.46-.41a6.93,6.93,0,0,1-.12-9.78L50.81,1.2Z"/><path id="Path_321" data-name="Path 321" class="cls-5" d="M48.38,9S51.27,8,52,10.79c0,0,1.05,3.52-1.18,5.55l-5.72-3.69A22.71,22.71,0,0,1,48.38,9Z"/><path id="Path_322" data-name="Path 322" class="cls-6" d="M47.65,9.78A2.87,2.87,0,0,1,50,8.92a2.36,2.36,0,0,1,2.12,1.93s1.06,3.5-1.18,5.54L45.19,12.7A34.51,34.51,0,0,1,47.65,9.78Z"/><path id="Path_323" data-name="Path 323" class="cls-6" d="M50.88,1.26h0A3.63,3.63,0,0,1,56,1l4.61,4.16a3.64,3.64,0,0,1,.27,5.13h0Z"/><path id="Path_324" data-name="Path 324" class="cls-4" d="M50.81,1.2h0A3.64,3.64,0,0,1,55.94.93l4.62,4.16a3.64,3.64,0,0,1,.27,5.13h0Z"/><ellipse id="Ellipse_69" data-name="Ellipse 69" class="cls-5" cx="47.58" cy="15.28" rx="3" ry="3.65" transform="translate(4.39 40.42) rotate(-48)"/><rect id="Rectangle_69" data-name="Rectangle 69" class="cls-4" x="15.96" y="43.83" width="1.59" height="24.58" transform="translate(-36.16 31.02) rotate(-48)"/><path id="Path_327" data-name="Path 327" class="cls-4" d="M7.09,48.49S3.3,53,2.88,54.19,0,57.73,0,57.73L4.74,62s1.91-3.48,3.79-4.55,3.58-5.34,3.58-5.34Z"/></g></g></g></svg>